<svg width="24" height="24" viewBox="0 0 24 24" fill="none" xmlns="http://www.w3.org/2000/svg">
<path d="M3.1123 14.08C3.1123 13.288 3.3603 12.576 3.8563 11.96C4.3523 11.344 4.9843 10.944 5.7603 10.768C5.9683 9.83195 6.4403 9.05595 7.1843 8.46395C7.9283 7.86395 8.7843 7.56795 9.7603 7.56795C10.7043 7.56795 11.5523 7.85595 12.2883 8.43995C13.0323 9.02396 13.5123 9.76796 13.7283 10.68H13.9443C14.8883 10.68 15.6883 11.008 16.3523 11.672C17.0163 12.336 17.3523 13.136 17.3523 14.072C17.3523 15.016 17.0163 15.816 16.3523 16.48C15.6883 17.144 14.8883 17.48 13.9443 17.48H6.5283C6.0643 17.48 5.6243 17.392 5.2083 17.208C4.7923 17.024 4.4163 16.8 4.1123 16.496C3.8083 16.192 3.5683 15.824 3.3843 15.408C3.2003 14.992 3.1123 14.536 3.1123 14.08ZM4.2723 14.08C4.2723 14.688 4.4963 15.216 4.9283 15.648C5.3603 16.08 5.8963 16.304 6.5203 16.304H13.9443C14.5603 16.304 15.0963 16.088 15.5363 15.648C15.9763 15.208 16.2003 14.688 16.2003 14.08C16.2003 13.472 15.9843 12.944 15.5363 12.512C15.0963 12.08 14.5683 11.856 13.9443 11.856H12.8323C12.7523 11.856 12.7123 11.816 12.7123 11.736L12.6563 11.344C12.5763 10.592 12.2563 9.95995 11.7043 9.46395C11.1523 8.96795 10.4963 8.71995 9.7443 8.71995C8.9923 8.71995 8.3363 8.96795 7.7763 9.47195C7.2163 9.96795 6.9043 10.6 6.8323 11.344L6.7763 11.68C6.7763 11.76 6.7363 11.8 6.6483 11.8L6.2883 11.856C5.7123 11.904 5.2323 12.144 4.8403 12.568C4.4723 12.992 4.2723 13.496 4.2723 14.08ZM11.3523 7.10395C11.2723 7.17595 11.2883 7.23195 11.4083 7.27195C11.7523 7.42395 12.0403 7.56796 12.2723 7.71196C12.3603 7.73596 12.4243 7.72795 12.4483 7.68795C12.9363 7.23195 13.4963 6.99995 14.1443 6.99995C14.7923 6.99995 15.3443 7.21596 15.8243 7.64796C16.2963 8.07996 16.5603 8.61595 16.6163 9.24796L16.6883 9.75995H17.8243C18.3443 9.75995 18.7923 9.94395 19.1683 10.32C19.5443 10.696 19.7283 11.136 19.7283 11.648C19.7283 12.128 19.5603 12.544 19.2323 12.904C18.9043 13.264 18.4963 13.464 18.0083 13.52C17.9283 13.52 17.8883 13.56 17.8883 13.648V14.552C17.8883 14.64 17.9283 14.68 18.0083 14.68C18.8163 14.632 19.4963 14.312 20.0483 13.728C20.6003 13.144 20.8803 12.448 20.8803 11.648C20.8803 10.8 20.5843 10.08 19.9843 9.48795C19.3843 8.88795 18.6643 8.59195 17.8243 8.59195H17.7043C17.4963 7.79195 17.0563 7.13596 16.3843 6.61596C15.7203 6.09596 14.9683 5.83995 14.1443 5.83995C13.0243 5.83195 12.0883 6.25595 11.3523 7.10395Z" fill="black"/>
</svg>
