<svg width="24" height="24" viewBox="0 0 24 24" fill="none" xmlns="http://www.w3.org/2000/svg">
<path d="M3.49609 11.6962C3.49609 11.5042 3.56009 11.3362 3.69609 11.2002C3.83209 11.0722 4.00009 11.0082 4.17609 11.0082H5.80809C5.99209 11.0082 6.14409 11.0722 6.27209 11.2082C6.39209 11.3442 6.45609 11.5042 6.45609 11.6962C6.45609 11.8882 6.40009 12.0482 6.28009 12.1842C6.16009 12.3202 6.00009 12.3842 5.81609 12.3842H4.18409C4.00009 12.3842 3.84009 12.3202 3.70409 12.1842C3.56809 12.0482 3.49609 11.8882 3.49609 11.6962ZM5.78409 17.2402C5.78409 17.0562 5.84809 16.8962 5.96809 16.7522L7.14409 15.6082C7.26409 15.4802 7.42409 15.4242 7.61609 15.4242C7.80809 15.4242 7.96809 15.4882 8.09609 15.6082C8.22409 15.7282 8.28809 15.8802 8.28809 16.0642C8.28809 16.2562 8.22409 16.4322 8.09609 16.5762L6.96009 17.7122C6.63209 17.9682 6.30409 17.9682 5.97609 17.7122C5.84809 17.5842 5.78409 17.4242 5.78409 17.2402ZM5.78409 6.1682C5.78409 5.9842 5.84809 5.8242 5.96809 5.6802C6.12809 5.5442 6.29609 5.4802 6.48009 5.4802C6.65609 5.4802 6.81609 5.5442 6.95209 5.6722L8.09609 6.8482C8.22409 6.9682 8.28809 7.1282 8.28809 7.3202C8.28809 7.5122 8.22409 7.6722 8.09609 7.8002C7.96809 7.9282 7.80809 7.9922 7.61609 7.9922C7.42409 7.9922 7.26409 7.9282 7.14409 7.8002L5.97609 6.6562C5.84809 6.5282 5.78409 6.3602 5.78409 6.1682ZM7.82409 11.6962C7.82409 10.9522 8.00809 10.2562 8.38409 9.6162C8.76009 8.9762 9.26409 8.4642 9.91209 8.0882C10.5601 7.7122 11.2481 7.5282 11.9921 7.5282C12.5521 7.5282 13.0881 7.6402 13.6081 7.8642C14.1201 8.0882 14.5681 8.3842 14.9361 8.7602C15.3121 9.1362 15.6081 9.5762 15.8241 10.0882C16.0401 10.6002 16.1521 11.1442 16.1521 11.7042C16.1521 12.4562 15.9681 13.1522 15.5921 13.7922C15.2161 14.4322 14.7121 14.9362 14.0721 15.3122C13.4321 15.6882 12.7361 15.8722 11.9841 15.8722C11.2321 15.8722 10.5361 15.6882 9.89609 15.3122C9.25609 14.9362 8.75209 14.4322 8.37609 13.7922C8.01609 13.1442 7.82409 12.4482 7.82409 11.6962ZM9.18409 11.6962C9.18409 12.4802 9.45609 13.1442 10.0081 13.6962C10.5521 14.2482 11.2161 14.5282 12.0001 14.5282C12.7841 14.5282 13.4481 14.2482 14.0001 13.6962C14.5521 13.1442 14.8321 12.4802 14.8321 11.6962C14.8321 10.9282 14.5521 10.2722 14.0001 9.7202C13.4481 9.1762 12.7841 8.9042 12.0001 8.9042C11.2241 8.9042 10.5601 9.1762 10.0161 9.7202C9.45609 10.2722 9.18409 10.9282 9.18409 11.6962ZM11.3121 17.9202C11.3121 17.7282 11.3761 17.5682 11.5121 17.4402C11.6481 17.3122 11.8081 17.2482 11.9921 17.2482C12.1841 17.2482 12.3521 17.3122 12.4801 17.4402C12.6081 17.5682 12.6721 17.7282 12.6721 17.9202V19.5122C12.6721 19.7042 12.6081 19.8722 12.4721 20.0082C12.3361 20.1442 12.1761 20.2082 11.9921 20.2082C11.8081 20.2082 11.6401 20.1442 11.5121 20.0082C11.3761 19.8722 11.3121 19.7042 11.3121 19.5122V17.9202ZM11.3121 5.5202V3.8882C11.3121 3.7042 11.3761 3.5442 11.5121 3.4082C11.6481 3.2722 11.8081 3.2002 12.0001 3.2002C12.1921 3.2002 12.3441 3.2642 12.4801 3.4002C12.6161 3.5362 12.6801 3.6962 12.6801 3.8802V5.5202C12.6801 5.7042 12.6161 5.8562 12.4801 5.9842C12.3441 6.1122 12.1841 6.1682 12.0001 6.1682C11.8161 6.1682 11.6481 6.1042 11.5201 5.9842C11.3921 5.8642 11.3121 5.7042 11.3121 5.5202ZM15.7281 16.0642C15.7281 15.8802 15.7921 15.7282 15.9121 15.6162C16.0321 15.4882 16.1841 15.4322 16.3601 15.4322C16.5521 15.4322 16.7121 15.4962 16.8401 15.6162L18.0081 16.7602C18.1361 16.8962 18.2001 17.0642 18.2001 17.2482C18.2001 17.4322 18.1361 17.5922 18.0081 17.7202C17.6881 17.9682 17.3681 17.9682 17.0481 17.7202L15.9121 16.5842C15.7921 16.4402 15.7281 16.2722 15.7281 16.0642ZM15.7281 7.3282C15.7281 7.1282 15.7921 6.9682 15.9121 6.8562L17.0481 5.6802C17.1841 5.5522 17.3441 5.4882 17.5201 5.4882C17.7121 5.4882 17.8721 5.5522 18.0001 5.6882C18.1361 5.8242 18.2001 5.9842 18.2001 6.1682C18.2001 6.3682 18.1361 6.5362 18.0081 6.6642L16.8401 7.8082C16.6961 7.9362 16.5361 8.0002 16.3601 8.0002C16.1761 8.0002 16.0321 7.9362 15.9121 7.8082C15.7921 7.6802 15.7281 7.5202 15.7281 7.3282ZM17.5361 11.6962C17.5361 11.5042 17.6001 11.3442 17.7281 11.2002C17.8561 11.0722 18.0081 11.0082 18.1841 11.0082H19.8001C19.9841 11.0082 20.1441 11.0802 20.2801 11.2162C20.4161 11.3522 20.4881 11.5122 20.4881 11.6962C20.4881 11.8802 20.4161 12.0402 20.2801 12.1762C20.1441 12.3122 19.9841 12.3762 19.8001 12.3762H18.1841C18.0001 12.3762 17.8401 12.3122 17.7201 12.1762C17.6001 12.0402 17.5361 11.8882 17.5361 11.6962Z" fill="black"/>
</svg>
