<svg width="24" height="24" viewBox="0 0 24 24" fill="none" xmlns="http://www.w3.org/2000/svg">
<path d="M1.24805 13.5195C1.24805 14.2395 1.42405 14.9035 1.77605 15.5115C2.12805 16.1195 2.60805 16.5995 3.21605 16.9515C3.82405 17.3035 4.48005 17.4795 5.19205 17.4795H13.856C14.568 17.4795 15.232 17.3035 15.84 16.9515C16.448 16.5995 16.936 16.1195 17.288 15.5115C17.64 14.9035 17.824 14.2395 17.824 13.5195C17.824 12.9915 17.712 12.4555 17.488 11.9195C18.096 11.1835 18.4 10.2955 18.4 9.27954C18.4 8.71154 18.288 8.16754 18.072 7.64754C17.856 7.12754 17.552 6.68754 17.176 6.31154C16.8 5.93554 16.36 5.63154 15.84 5.41554C15.32 5.19154 14.776 5.08754 14.208 5.08754C13.024 5.08754 11.992 5.55154 11.104 6.47954C10.488 6.12754 9.76805 5.95154 8.94405 5.95154C7.81605 5.95154 6.82405 6.30354 5.96005 6.99954C5.09605 7.69554 4.53605 8.59154 4.29605 9.67954C3.40005 9.88754 2.67205 10.3435 2.10405 11.0635C1.53605 11.7835 1.24805 12.5995 1.24805 13.5195ZM2.61605 13.5195C2.61605 12.8475 2.84005 12.2715 3.28805 11.7835C3.73605 11.2955 4.29605 11.0155 4.96805 10.9355L5.36805 10.9115C5.46405 10.9115 5.52005 10.8635 5.52005 10.7675L5.57605 10.3355C5.68805 9.47154 6.06405 8.74354 6.70405 8.16754C7.34405 7.58354 8.09605 7.29554 8.95205 7.29554C9.83205 7.29554 10.6 7.59154 11.248 8.17554C11.904 8.75954 12.264 9.47954 12.344 10.3435L12.4 10.8075C12.416 10.8955 12.472 10.9435 12.568 10.9435H13.856C14.56 10.9435 15.168 11.1995 15.68 11.7115C16.192 12.2235 16.448 12.8235 16.448 13.5275C16.448 14.2555 16.192 14.8715 15.688 15.3835C15.184 15.8955 14.568 16.1515 13.864 16.1515H5.19205C4.48805 16.1515 3.88805 15.8955 3.37605 15.3755C2.87205 14.8555 2.61605 14.2395 2.61605 13.5195ZM7.97605 3.70354C7.97605 3.89554 8.04005 4.06354 8.16805 4.20754L8.69605 4.71954C8.89605 4.87154 9.06405 4.93554 9.20805 4.91954C9.37605 4.91954 9.52005 4.84754 9.64805 4.71154C9.77605 4.57554 9.84005 4.40754 9.84005 4.21554C9.84005 4.02354 9.76805 3.86354 9.63205 3.74354L9.16005 3.21554C9.01605 3.08754 8.85605 3.02354 8.67205 3.02354C8.48005 3.02354 8.31205 3.08754 8.17605 3.22354C8.04005 3.35154 7.97605 3.51154 7.97605 3.70354ZM12.248 7.24754C12.8 6.71154 13.456 6.44754 14.208 6.44754C15 6.44754 15.672 6.71954 16.224 7.27154C16.776 7.82354 17.056 8.48754 17.056 9.27954C17.056 9.77554 16.92 10.2715 16.648 10.7515C15.872 9.98354 14.944 9.59954 13.856 9.59954H13.6C13.4 8.72754 12.952 7.94354 12.248 7.24754ZM13.552 3.02354C13.552 3.23154 13.616 3.39154 13.736 3.51954C13.856 3.64754 14.016 3.70354 14.208 3.70354C14.416 3.70354 14.576 3.63954 14.704 3.51954C14.832 3.39154 14.888 3.23154 14.888 3.02354V1.38354C14.888 1.19154 14.824 1.03954 14.696 0.911539C14.568 0.783539 14.408 0.727539 14.208 0.727539C14.016 0.727539 13.864 0.791539 13.736 0.911539C13.608 1.03154 13.552 1.19154 13.552 1.38354V3.02354ZM17.968 4.85554C17.968 5.06354 18.024 5.22354 18.144 5.35154C18.312 5.47954 18.48 5.54354 18.64 5.54354C18.784 5.54354 18.944 5.47954 19.112 5.35154L20.256 4.20754C20.384 4.06354 20.448 3.89554 20.448 3.69554C20.448 3.50354 20.384 3.34354 20.256 3.21554C20.128 3.08754 19.968 3.02354 19.784 3.02354C19.592 3.02354 19.44 3.08754 19.32 3.21554L18.144 4.35954C18.024 4.51154 17.968 4.67154 17.968 4.85554ZM18.6 14.3275C18.6 14.5195 18.664 14.6875 18.8 14.8315L19.32 15.3355C19.44 15.4635 19.592 15.5275 19.784 15.5275C19.976 15.5275 20.136 15.4635 20.264 15.3275C20.392 15.1915 20.456 15.0315 20.456 14.8315C20.456 14.6555 20.392 14.4955 20.264 14.3675L19.744 13.8475C19.616 13.7195 19.464 13.6555 19.288 13.6555C19.096 13.6555 18.936 13.7195 18.808 13.8475C18.672 13.9755 18.6 14.1355 18.6 14.3275ZM19.776 9.27954C19.776 9.46354 19.848 9.61554 19.984 9.74354C20.112 9.87154 20.28 9.93554 20.472 9.93554H22.104C22.288 9.93554 22.44 9.87154 22.568 9.75154C22.696 9.63154 22.752 9.47154 22.752 9.27954C22.752 9.08754 22.688 8.92754 22.568 8.79954C22.448 8.67154 22.288 8.59954 22.104 8.59954H20.472C20.28 8.59954 20.12 8.66354 19.984 8.79954C19.84 8.93554 19.776 9.09554 19.776 9.27954Z" fill="black"/>
</svg>
