<svg width="24" height="24" viewBox="0 0 24 24" fill="none" xmlns="http://www.w3.org/2000/svg">
<path d="M1.18359 13.5044C1.18359 14.5764 1.55959 15.4964 2.30359 16.2644C3.04759 17.0324 3.95959 17.4404 5.02359 17.4884C5.11959 17.4884 5.16759 17.4404 5.16759 17.3524V16.2804C5.16759 16.1844 5.11959 16.1364 5.02359 16.1364C4.33559 16.1044 3.75159 15.8244 3.27159 15.3124C2.79159 14.8004 2.55159 14.1924 2.55159 13.5044C2.55159 12.8404 2.77559 12.2644 3.23159 11.7684C3.68759 11.2724 4.24759 10.9924 4.91159 10.9124L5.33559 10.8804C5.43959 10.8804 5.49559 10.8324 5.49559 10.7364L5.55159 10.2964C5.63959 9.43244 5.99959 8.70444 6.64759 8.12844C7.29559 7.54444 8.05559 7.25644 8.9356 7.25644C9.8076 7.25644 10.5676 7.54444 11.2236 8.12844C11.8796 8.71244 12.2556 9.43244 12.3436 10.2964L12.3996 10.7604C12.3996 10.8564 12.4476 10.9124 12.5356 10.9124H13.8316C14.5436 10.9124 15.1676 11.1684 15.6876 11.6804C16.2076 12.1924 16.4716 12.8004 16.4716 13.4964C16.4716 14.1924 16.2316 14.7924 15.7436 15.3044C15.2556 15.8164 14.6716 16.0884 13.9916 16.1284C13.8876 16.1284 13.8316 16.1764 13.8316 16.2724V17.3444C13.8316 17.4324 13.8876 17.4804 13.9916 17.4804C15.0636 17.4484 15.9676 17.0404 16.7036 16.2724C17.4476 15.4964 17.8156 14.5764 17.8156 13.5044C17.8156 12.9124 17.7036 12.3764 17.4876 11.8964C18.1196 11.1284 18.4316 10.2404 18.4316 9.23244C18.4316 8.48044 18.2396 7.77644 17.8636 7.12844C17.4796 6.48044 16.9676 5.96844 16.3196 5.58444C15.6716 5.20844 14.9676 5.01644 14.2156 5.01644C12.9676 5.01644 11.9276 5.48044 11.0956 6.41644C10.4556 6.06444 9.73559 5.88844 8.92759 5.88844C7.79959 5.88844 6.79159 6.24044 5.91959 6.93644C5.04759 7.63244 4.47959 8.53644 4.23159 9.63244C3.34359 9.84044 2.61559 10.3044 2.03959 11.0244C1.47159 11.7604 1.18359 12.5844 1.18359 13.5044ZM5.45559 19.1524C5.53559 19.3284 5.65559 19.4484 5.82359 19.5124C5.98359 19.5924 6.15159 19.6004 6.32759 19.5284C6.50359 19.4644 6.62359 19.3444 6.68759 19.1684C6.76759 18.9924 6.77559 18.8244 6.70359 18.6484C6.63959 18.4804 6.51959 18.3604 6.34359 18.2964C6.18359 18.2084 6.01559 18.2004 5.84759 18.2724C5.67159 18.3444 5.55159 18.4644 5.47159 18.6484C5.39159 18.7924 5.38359 18.9604 5.45559 19.1524ZM5.96759 16.8804C5.96759 16.9924 5.99159 17.0964 6.03959 17.1844C6.19159 17.4324 6.43159 17.5524 6.75159 17.5524C7.00759 17.5524 7.19159 17.3764 7.30359 17.0324L8.13559 14.4564C8.19959 14.2644 8.1836 14.0804 8.0796 13.9204C7.97559 13.7604 7.83159 13.6564 7.63959 13.6244C7.47159 13.5844 7.30359 13.6004 7.14359 13.6804C6.98359 13.7684 6.87159 13.9044 6.81559 14.0804L5.99159 16.6564C5.97559 16.7364 5.96759 16.8164 5.96759 16.8804ZM7.46359 21.3764C7.46359 21.4804 7.47959 21.5604 7.50359 21.6084C7.57559 21.7844 7.69559 21.9044 7.86359 21.9684C7.93559 22.0084 8.03159 22.0244 8.1436 22.0244C8.1916 22.0244 8.27159 22.0084 8.38359 21.9764C8.55959 21.9124 8.68759 21.7924 8.75959 21.6164C8.83159 21.4404 8.83959 21.2644 8.75959 21.0884C8.67959 20.9124 8.55959 20.7924 8.39959 20.7284C8.23959 20.6644 8.07159 20.6644 7.90359 20.7284C7.75159 20.7844 7.63959 20.8804 7.56759 21.0084C7.49559 21.1364 7.46359 21.2644 7.46359 21.3764ZM7.95159 3.65644C7.95159 3.85644 8.01559 4.01644 8.1436 4.13644L8.66359 4.65644C8.79159 4.78444 8.93559 4.85644 9.09559 4.87244C9.26359 4.89644 9.42359 4.83244 9.58359 4.68844C9.74359 4.54444 9.82359 4.36844 9.82359 4.17644C9.82359 3.98444 9.75959 3.82444 9.63159 3.69644L9.11959 3.18444C8.96759 3.04844 8.80759 2.98444 8.62359 2.98444C8.43159 2.98444 8.26359 3.04844 8.13559 3.17644C8.01559 3.31244 7.95159 3.47244 7.95159 3.65644ZM8.04759 19.2244C8.04759 19.3524 8.08759 19.4804 8.17559 19.6084C8.26359 19.7364 8.39159 19.8244 8.55959 19.8724C8.64759 19.8884 8.71159 19.9044 8.75159 19.9044C8.87159 19.9044 8.97559 19.8804 9.05559 19.8404C9.21559 19.7764 9.32759 19.6244 9.3996 19.3844L10.8396 14.4724C10.8956 14.2804 10.8796 14.1124 10.7916 13.9524C10.7036 13.7924 10.5756 13.6884 10.3916 13.6404C10.1996 13.5844 10.0236 13.6004 9.8636 13.6884C9.7036 13.7764 9.59159 13.9044 9.53559 14.0964L8.06359 19.0484C8.05559 19.1364 8.04759 19.2004 8.04759 19.2244ZM10.8076 18.9124C10.8076 19.0164 10.8236 19.0964 10.8636 19.1604C10.9356 19.3284 11.0556 19.4404 11.2236 19.5124C11.3116 19.5524 11.3996 19.5764 11.5036 19.5764C11.5516 19.5764 11.6316 19.5604 11.7436 19.5284C11.9276 19.4564 12.0476 19.3444 12.1116 19.1764C12.1756 19.0004 12.1756 18.8324 12.1116 18.6724C12.0476 18.5124 11.9356 18.3924 11.7756 18.3124C11.5916 18.2244 11.4236 18.2164 11.2476 18.2884C11.0796 18.3604 10.9516 18.4804 10.8636 18.6644C10.8236 18.7284 10.8076 18.8084 10.8076 18.9124ZM11.3836 16.8644C11.3836 16.9924 11.4236 17.1124 11.5036 17.2244C11.5836 17.3444 11.7116 17.4244 11.8716 17.4724C11.9436 17.4884 12.0076 17.4964 12.0716 17.4964C12.3836 17.4964 12.5916 17.3364 12.7036 17.0084L13.5276 14.4644C13.5916 14.2804 13.5676 14.1044 13.4716 13.9444C13.3756 13.7844 13.2396 13.6804 13.0556 13.6324C12.8636 13.5764 12.6956 13.5924 12.5436 13.6804C12.3916 13.7684 12.2876 13.8964 12.2236 14.0884L11.4076 16.6484C11.3996 16.7524 11.3836 16.8244 11.3836 16.8644ZM12.2396 7.20044C12.7756 6.68844 13.4396 6.42444 14.2236 6.42444C15.0076 6.42444 15.6716 6.69644 16.2236 7.24844C16.7756 7.79244 17.0556 8.45644 17.0556 9.24044C17.0556 9.73644 16.9196 10.2324 16.6396 10.7204C15.8716 9.95244 14.9436 9.56844 13.8316 9.56844H13.5996C13.3596 8.64044 12.9116 7.84844 12.2396 7.20044ZM13.5356 2.98444C13.5356 3.17644 13.5996 3.33644 13.7356 3.47244C13.8716 3.60844 14.0316 3.67244 14.2236 3.67244C14.4076 3.67244 14.5676 3.60844 14.6956 3.47244C14.8236 3.33644 14.8876 3.17644 14.8876 2.98444V1.33644C14.8876 1.14444 14.8236 0.984437 14.6956 0.848437C14.5676 0.712437 14.4156 0.648438 14.2236 0.648438C14.0316 0.648438 13.8716 0.712437 13.7356 0.848437C13.5996 0.984437 13.5356 1.14444 13.5356 1.33644V2.98444ZM17.9756 4.81644C17.9756 5.00844 18.0396 5.16844 18.1756 5.29644C18.2956 5.43244 18.4476 5.50444 18.6396 5.50444C18.8236 5.50444 18.9916 5.43244 19.1196 5.29644L20.2716 4.14444C20.4156 4.02444 20.4876 3.86444 20.4876 3.66444C20.4876 3.47244 20.4156 3.31244 20.2796 3.17644C20.1436 3.04044 19.9756 2.97644 19.7916 2.97644C19.6156 2.97644 19.4636 3.04844 19.3356 3.19244L18.1756 4.33644C18.0476 4.45644 17.9756 4.62444 17.9756 4.81644ZM18.6236 14.3364C18.6236 14.5204 18.6876 14.6804 18.8156 14.8164L19.3436 15.3204C19.4556 15.4644 19.6156 15.5364 19.8236 15.5364C20.0156 15.5364 20.1676 15.4644 20.2796 15.3204C20.4236 15.1924 20.4956 15.0324 20.4956 14.8404C20.4956 14.6484 20.4236 14.4884 20.2796 14.3524L19.7596 13.8564C19.6316 13.7124 19.4796 13.6484 19.2956 13.6484C19.1116 13.6484 18.9516 13.7124 18.8156 13.8484C18.6876 13.9844 18.6236 14.1524 18.6236 14.3364ZM19.7916 9.24044C19.7916 9.43244 19.8636 9.59244 19.9996 9.72044C20.1436 9.86444 20.3036 9.92844 20.4956 9.92844H22.1196C22.3116 9.92844 22.4716 9.86444 22.6076 9.72844C22.7436 9.59244 22.8156 9.43244 22.8156 9.24044C22.8156 9.05644 22.7516 8.89644 22.6156 8.76844C22.4796 8.64044 22.3116 8.57644 22.1196 8.57644H20.4956C20.2956 8.57644 20.1276 8.64044 19.9916 8.76844C19.8636 8.89644 19.7916 9.05644 19.7916 9.24044Z" fill="black"/>
</svg>
