<svg width="24" height="24" viewBox="0 0 24 24" fill="none" xmlns="http://www.w3.org/2000/svg">
<path d="M2.48047 16.8321C2.48047 16.6401 2.54447 16.4721 2.68047 16.3441C2.81647 16.2161 2.98447 16.1521 3.18447 16.1521H10.3605C10.5525 16.1521 10.7045 16.2161 10.8325 16.3441C10.9605 16.4721 11.0165 16.6321 11.0165 16.8321C11.0165 17.0241 10.9525 17.1841 10.8245 17.3121C10.6965 17.4401 10.5445 17.5041 10.3525 17.5041H3.18447C2.98447 17.5041 2.81647 17.4401 2.68047 17.3121C2.54447 17.1841 2.48047 17.0161 2.48047 16.8321ZM4.58447 14.3841C4.58447 14.1921 4.65647 14.0321 4.80047 13.9041C4.91247 13.7841 5.07247 13.7201 5.27247 13.7201H12.4725C12.6565 13.7201 12.8085 13.7841 12.9365 13.9041C13.0645 14.0241 13.1205 14.1841 13.1205 14.3761C13.1205 14.5681 13.0565 14.7281 12.9365 14.8641C12.8165 15.0001 12.6565 15.0641 12.4725 15.0641H5.27247C5.08847 15.0641 4.92847 14.9921 4.79247 14.8561C4.65647 14.7201 4.58447 14.5681 4.58447 14.3841ZM5.08047 12.5201C5.08047 12.5921 5.12847 12.6321 5.21647 12.6321H6.36047C6.43247 12.6321 6.49647 12.5921 6.54447 12.5201C6.72847 12.0881 7.00047 11.7281 7.37647 11.4401C7.75247 11.1521 8.16847 10.9921 8.64047 10.9601L9.07247 10.9041C9.16047 10.9041 9.20847 10.8561 9.20847 10.7601L9.26447 10.3441C9.35247 9.47211 9.72847 8.75211 10.3765 8.16811C11.0325 7.58411 11.7925 7.29611 12.6725 7.29611C13.5445 7.29611 14.2965 7.58411 14.9365 8.15211C15.5765 8.72811 15.9525 9.44811 16.0645 10.3121L16.1205 10.7841C16.1205 10.8721 16.1685 10.9121 16.2645 10.9121H17.5445C18.2725 10.9121 18.8885 11.1681 19.4005 11.6801C19.9125 12.1921 20.1685 12.8081 20.1685 13.5361C20.1685 14.2401 19.9045 14.8481 19.3925 15.3601C18.8725 15.8801 18.2565 16.1361 17.5445 16.1361H12.0325C11.9365 16.1361 11.8885 16.1841 11.8885 16.2721V17.3441C11.8885 17.4401 11.9365 17.4881 12.0325 17.4881H17.5445C18.0885 17.4881 18.6005 17.3841 19.0965 17.1761C19.5925 16.9681 20.0085 16.6881 20.3605 16.3361C20.7125 15.9841 20.9925 15.5601 21.2005 15.0721C21.4085 14.5841 21.5125 14.0721 21.5125 13.5361C21.5125 12.8161 21.3365 12.1521 20.9845 11.5441C20.6325 10.9361 20.1525 10.4561 19.5445 10.1041C18.9365 9.75211 18.2645 9.57611 17.5445 9.57611H17.2965C17.0325 8.50411 16.4725 7.62411 15.6165 6.93611C14.7525 6.25611 13.7765 5.91211 12.6725 5.91211C11.5365 5.91211 10.5365 6.26411 9.66447 6.97611C8.79247 7.68011 8.24047 8.58411 8.00047 9.68811C7.31247 9.84011 6.70447 10.1681 6.18447 10.6561C5.66447 11.1441 5.30447 11.7361 5.09647 12.4321V12.4481C5.08847 12.4801 5.08047 12.4961 5.08047 12.5201ZM6.00047 19.3041C6.00047 19.1121 6.07247 18.9521 6.20847 18.8241C6.32847 18.6961 6.48847 18.6401 6.68047 18.6401H13.8725C14.0645 18.6401 14.2325 18.7041 14.3605 18.8321C14.4965 18.9601 14.5605 19.1201 14.5605 19.3121C14.5605 19.5041 14.4965 19.6641 14.3605 19.8001C14.2245 19.9361 14.0645 20.0001 13.8725 20.0001H6.68047C6.49647 20.0001 6.33647 19.9361 6.20047 19.8001C6.06447 19.6561 6.00047 19.4961 6.00047 19.3041Z" fill="black"/>
</svg>
