<svg width="24" height="24" viewBox="0 0 24 24" fill="none" xmlns="http://www.w3.org/2000/svg">
<path d="M3.68848 13.5041C3.68848 12.5841 3.97648 11.7681 4.55248 11.0481C5.12848 10.3281 5.85648 9.86411 6.74448 9.66411C6.99248 8.56811 7.56048 7.67211 8.43248 6.96811C9.30448 6.26411 10.3125 5.91211 11.4405 5.91211C12.5445 5.91211 13.5285 6.25611 14.3925 6.93611C15.2565 7.61611 15.8165 8.49611 16.0725 9.56811H16.3365C17.0565 9.56811 17.7205 9.74411 18.3285 10.0881C18.9365 10.4321 19.4245 10.9121 19.7765 11.5201C20.1285 12.1281 20.3125 12.7841 20.3125 13.5041C20.3125 14.2081 20.1445 14.8641 19.8085 15.4641C19.4725 16.0641 19.0085 16.5441 18.4245 16.9041C17.8405 17.2641 17.1925 17.4561 16.4965 17.4801H7.52848C6.45648 17.4321 5.55248 17.0241 4.80848 16.2561C4.06448 15.4961 3.68848 14.5761 3.68848 13.5041ZM5.05648 13.5041C5.05648 14.2001 5.29648 14.8001 5.77648 15.3121C6.25648 15.8241 6.84048 16.0961 7.52848 16.1361H16.4805C17.1685 16.1041 17.7525 15.8241 18.2325 15.3121C18.7205 14.8001 18.9605 14.1921 18.9605 13.5041C18.9605 12.8001 18.6965 12.2001 18.1765 11.6881C17.6565 11.1761 17.0405 10.9201 16.3205 10.9201H15.0405C14.9525 10.9201 14.9045 10.8721 14.9045 10.7761L14.8485 10.3201C14.7605 9.45611 14.3845 8.72811 13.7285 8.14411C13.0725 7.56011 12.3125 7.26411 11.4405 7.26411C10.5685 7.26411 9.80048 7.56011 9.16048 8.14411C8.51248 8.72811 8.14448 9.45611 8.06448 10.3201L8.00048 10.7761C8.00048 10.8721 7.94448 10.9201 7.84048 10.9201H7.41648C6.74448 11.0001 6.18448 11.2881 5.73648 11.7761C5.28848 12.2641 5.05648 12.8401 5.05648 13.5041Z" fill="black"/>
</svg>
