<svg width="24" height="24" viewBox="0 0 24 24" fill="none" xmlns="http://www.w3.org/2000/svg">
<path d="M3.72021 13.5681C3.72021 14.6241 4.09621 15.5361 4.84021 16.2961C5.58421 17.0641 6.48821 17.4641 7.54421 17.4961C7.64022 17.4961 7.68821 17.4481 7.68821 17.3601V16.2961C7.68821 16.2001 7.64022 16.1521 7.54421 16.1521C6.87222 16.1201 6.28821 15.8481 5.80821 15.3361C5.32822 14.8241 5.08021 14.2401 5.08021 13.5601C5.08021 12.8881 5.30421 12.3041 5.76021 11.8081C6.21621 11.3121 6.76821 11.0321 7.44021 10.9761L7.86421 10.9201C7.96021 10.9201 8.01622 10.8721 8.01622 10.7761L8.07222 10.3761C8.15222 9.50415 8.51221 8.76815 9.16021 8.17615C9.80821 7.58415 10.5682 7.28815 11.4482 7.28815C12.3122 7.28815 13.0722 7.58415 13.7202 8.16815C14.3682 8.75215 14.7442 9.47215 14.8402 10.3361L14.8962 10.8001C14.8962 10.8961 14.9442 10.9441 15.0482 10.9441H16.3282C17.0482 10.9441 17.6642 11.2001 18.1842 11.7201C18.6962 12.2321 18.9602 12.8481 18.9602 13.5601C18.9602 14.2321 18.7202 14.8241 18.2402 15.3361C17.7602 15.8401 17.1762 16.1121 16.4962 16.1521C16.3922 16.1521 16.3362 16.2001 16.3362 16.2961V17.3601C16.3362 17.4481 16.3922 17.4961 16.4962 17.4961C17.5602 17.4641 18.4642 17.0641 19.2002 16.2961C19.9362 15.5281 20.3042 14.6241 20.3042 13.5601C20.3042 12.8481 20.1282 12.1841 19.7682 11.5761C19.4162 10.9681 18.9282 10.4881 18.3202 10.1361C17.7122 9.78415 17.0482 9.60815 16.3362 9.60815H16.0882C15.8242 8.53615 15.2642 7.66415 14.4002 6.97615C13.5442 6.29615 12.5602 5.95215 11.4562 5.95215C10.3282 5.95215 9.32821 6.30415 8.45621 7.00015C7.58421 7.69615 7.02421 8.59215 6.77622 9.68015C5.87222 9.91215 5.14421 10.3841 4.57621 11.0961C4.00821 11.8081 3.72021 12.6401 3.72021 13.5681ZM8.04022 19.1841C8.04022 19.3201 8.08021 19.4561 8.16821 19.5921C8.25622 19.7281 8.38421 19.8161 8.54422 19.8721C8.72822 19.9281 8.89621 19.9201 9.05621 19.8401C9.20821 19.7681 9.32021 19.6161 9.36822 19.3921L9.48022 18.9041C9.52022 18.7201 9.49621 18.5521 9.40822 18.4001C9.32022 18.2481 9.18421 18.1361 8.99221 18.0801C8.81621 18.0241 8.64021 18.0481 8.48022 18.1441C8.32022 18.2401 8.20821 18.3841 8.16021 18.5681L8.04822 19.0401C8.04822 19.0641 8.04022 19.1121 8.04022 19.1841ZM8.64822 16.8641C8.64822 17.0321 8.71221 17.1841 8.84822 17.3201C8.97622 17.4561 9.12021 17.5201 9.29621 17.5201C9.48821 17.5201 9.64822 17.4561 9.77622 17.3281C9.90421 17.2001 9.96821 17.0481 9.96821 16.8561C9.96821 16.6721 9.90421 16.5121 9.77622 16.3841C9.64822 16.2561 9.48821 16.1921 9.29621 16.1921C9.11221 16.1921 8.96021 16.2561 8.83221 16.3761C8.71221 16.5201 8.64822 16.6801 8.64822 16.8641ZM9.13621 15.0481C9.12821 15.1761 9.16022 15.2961 9.24822 15.4081C9.32822 15.5281 9.45621 15.6081 9.63222 15.6641C9.80021 15.7121 9.96022 15.6961 10.1282 15.6081C10.2962 15.5201 10.4002 15.3841 10.4562 15.2001L10.6802 14.4801C10.7362 14.2881 10.7202 14.1121 10.6242 13.9601C10.5282 13.8081 10.3842 13.7041 10.1922 13.6481C10.0162 13.5921 9.84821 13.6081 9.68821 13.7041C9.52821 13.7921 9.41621 13.9281 9.36021 14.1041L9.16821 14.8401C9.16821 14.8561 9.16021 14.8881 9.15221 14.9361C9.14421 14.9761 9.13621 15.0161 9.13621 15.0481ZM10.0722 21.6801C10.0722 21.8241 10.1122 21.9521 10.1922 22.0801C10.2722 22.2081 10.4002 22.2961 10.5762 22.3441C10.6402 22.3601 10.7122 22.3681 10.7762 22.3681C11.1202 22.3681 11.3282 22.2081 11.4082 21.8801L11.5202 21.4081C11.5682 21.2001 11.5442 21.0241 11.4562 20.8641C11.3602 20.7041 11.2242 20.6081 11.0402 20.5681C10.8722 20.5121 10.7042 20.5281 10.5362 20.6241C10.3682 20.7201 10.2642 20.8561 10.2082 21.0321L10.0962 21.5041C10.0802 21.5761 10.0722 21.6321 10.0722 21.6801ZM10.6882 19.3601C10.6882 19.5361 10.7522 19.6881 10.8882 19.8241C11.0162 19.9521 11.1682 20.0161 11.3442 20.0161C11.5362 20.0161 11.6882 19.9521 11.8162 19.8321C11.9442 19.7041 12.0002 19.5521 12.0002 19.3601C12.0002 19.1761 11.9362 19.0241 11.8162 18.8961C11.6882 18.7681 11.5362 18.7121 11.3442 18.7121C11.1522 18.7121 11.0002 18.7761 10.8722 18.8961C10.7442 19.0161 10.6882 19.1761 10.6882 19.3601ZM11.1922 17.5441C11.1842 17.6641 11.2162 17.7921 11.2962 17.9201C11.3762 18.0481 11.4962 18.1281 11.6562 18.1601C11.8402 18.2081 12.0082 18.1921 12.1682 18.1121C12.3282 18.0321 12.4322 17.8801 12.4962 17.6641L12.7122 16.9441C12.7682 16.7681 12.7522 16.6001 12.6562 16.4401C12.5602 16.2801 12.4242 16.1761 12.2322 16.1201C12.0562 16.0641 11.8882 16.0881 11.7202 16.1841C11.5522 16.2801 11.4482 16.4241 11.3922 16.6081L11.2082 17.3281C11.2002 17.3921 11.1922 17.4641 11.1922 17.5441ZM13.4002 19.2641C13.4002 19.3921 13.4402 19.5201 13.5202 19.6481C13.6002 19.7761 13.7282 19.8641 13.8882 19.9121C13.9122 19.9121 13.9522 19.9201 14.0002 19.9281C14.0482 19.9361 14.0802 19.9441 14.1122 19.9441C14.4402 19.9441 14.6402 19.7681 14.7202 19.4161L14.8322 18.9361C14.8882 18.7681 14.8722 18.6001 14.7762 18.4321C14.6882 18.2641 14.5522 18.1601 14.3682 18.1041C14.1682 18.0561 13.9842 18.0721 13.8242 18.1681C13.6642 18.2641 13.5522 18.4001 13.4962 18.5921L13.4242 19.0641C13.4242 19.0801 13.4162 19.1201 13.4082 19.1601C13.4002 19.2001 13.4002 19.2321 13.4002 19.2641ZM13.9922 16.8961C13.9922 17.0721 14.0562 17.2321 14.1922 17.3521C14.3122 17.4801 14.4642 17.5441 14.6482 17.5441C14.8402 17.5441 14.9922 17.4801 15.1202 17.3601C15.2482 17.2401 15.3042 17.0801 15.3042 16.8961C15.3042 16.7041 15.2402 16.5521 15.1202 16.4241C15.0002 16.2961 14.8402 16.2401 14.6482 16.2401C14.4562 16.2401 14.3042 16.3041 14.1762 16.4241C14.0562 16.5521 13.9922 16.7041 13.9922 16.8961ZM14.4802 15.0481C14.4802 15.1841 14.5202 15.3121 14.6082 15.4321C14.6962 15.5521 14.8242 15.6401 15.0002 15.6881C15.0162 15.6881 15.0482 15.6961 15.0962 15.7041C15.1442 15.7121 15.1842 15.7201 15.2082 15.7201C15.2882 15.7201 15.3842 15.6961 15.4962 15.6481C15.6642 15.5601 15.7762 15.4161 15.8242 15.2321L16.0162 14.5121C16.0642 14.3281 16.0482 14.1601 15.9522 14.0081C15.8642 13.8481 15.7282 13.7441 15.5442 13.6881C15.3602 13.6321 15.1922 13.6481 15.0322 13.7361C14.8802 13.8241 14.7682 13.9521 14.7202 14.1441L14.4962 14.8721C14.4962 14.8881 14.4882 14.9201 14.4802 14.9681C14.4802 14.9921 14.4802 15.0241 14.4802 15.0481Z" fill="black"/>
</svg>
