<svg width="24" height="24" viewBox="0 0 24 24" fill="none" xmlns="http://www.w3.org/2000/svg">
<path d="M1.26367 13.544C1.26367 14.232 1.43167 14.88 1.77567 15.472C2.11167 16.064 2.57567 16.544 3.16767 16.904C3.75167 17.264 4.39967 17.456 5.08767 17.472C5.17567 17.472 5.22367 17.424 5.22367 17.336V16.272C5.22367 16.176 5.17567 16.12 5.08767 16.12C4.40767 16.088 3.82367 15.816 3.34367 15.304C2.86367 14.792 2.62367 14.208 2.62367 13.536C2.62367 12.88 2.84767 12.304 3.30367 11.808C3.75967 11.32 4.31167 11.032 4.98367 10.952L5.40767 10.904C5.50367 10.904 5.55167 10.856 5.55167 10.752L5.61567 10.344C5.70367 9.47195 6.06367 8.74395 6.70367 8.15995C7.34367 7.57595 8.10367 7.28795 8.98367 7.28795C9.85567 7.28795 10.6157 7.57595 11.2637 8.15995C11.9197 8.74395 12.2877 9.46395 12.3677 10.32L12.4237 10.784C12.4237 10.872 12.4717 10.92 12.5597 10.92H13.8477C14.5677 10.92 15.1837 11.176 15.6957 11.688C16.2077 12.2 16.4637 12.808 16.4637 13.52C16.4637 14.192 16.2237 14.776 15.7437 15.288C15.2637 15.792 14.6797 16.064 14.0077 16.104C13.9117 16.104 13.8557 16.152 13.8557 16.256V17.32C13.8557 17.408 13.9037 17.456 14.0077 17.456C15.0717 17.424 15.9677 17.024 16.7117 16.256C17.4557 15.488 17.8237 14.584 17.8237 13.528C17.8237 12.92 17.7117 12.384 17.4797 11.904C18.0797 11.16 18.3997 10.28 18.3997 9.27995C18.3997 8.52795 18.2157 7.83195 17.8397 7.19195C17.4637 6.55195 16.9517 6.03995 16.3117 5.66395C15.6717 5.28795 14.9677 5.10395 14.2157 5.10395C12.9837 5.10395 11.9517 5.56795 11.1197 6.48795C10.4717 6.13595 9.75167 5.95995 8.96767 5.95995C7.83967 5.95995 6.84767 6.31195 5.97567 7.00795C5.10367 7.70395 4.55167 8.59995 4.30367 9.67995C3.40767 9.90395 2.67967 10.368 2.11167 11.08C1.54367 11.8 1.26367 12.616 1.26367 13.544ZM6.33567 16.784C6.33567 16.976 6.39967 17.136 6.52767 17.272C6.65567 17.408 6.80767 17.472 6.99967 17.472C7.18367 17.472 7.34367 17.408 7.47167 17.272C7.59967 17.136 7.66367 16.976 7.66367 16.784C7.66367 16.6 7.59967 16.448 7.47167 16.32C7.34367 16.192 7.19167 16.128 6.99967 16.128C6.81567 16.128 6.65567 16.192 6.52767 16.32C6.39967 16.448 6.33567 16.608 6.33567 16.784ZM6.33567 19.688C6.33567 19.856 6.39967 20.008 6.52767 20.144C6.67167 20.272 6.82367 20.336 6.99167 20.336C7.18367 20.336 7.33567 20.272 7.46367 20.152C7.59167 20.024 7.64767 19.872 7.64767 19.688C7.64767 19.496 7.58367 19.344 7.45567 19.216C7.32767 19.088 7.17567 19.032 6.98367 19.032C6.79967 19.032 6.63967 19.096 6.51167 19.216C6.39967 19.336 6.33567 19.496 6.33567 19.688ZM7.97567 3.74395C7.97567 3.93595 8.03967 4.09595 8.16767 4.21595L8.69567 4.74395C8.82367 4.87195 8.96767 4.94395 9.11967 4.94395C9.28767 4.96795 9.44767 4.91195 9.60767 4.76795C9.76767 4.62395 9.84767 4.45595 9.84767 4.26395C9.84767 4.07195 9.78367 3.89595 9.65567 3.75195L9.14367 3.26395C9.02367 3.12795 8.87167 3.06395 8.67967 3.06395C8.47967 3.06395 8.31167 3.12795 8.17567 3.26395C8.03967 3.39195 7.97567 3.55195 7.97567 3.74395ZM8.87967 18.32C8.87967 18.496 8.94367 18.656 9.07167 18.8C9.19967 18.928 9.35967 18.992 9.53567 18.992C9.72767 18.992 9.88767 18.928 10.0157 18.8C10.1437 18.672 10.2157 18.512 10.2157 18.32C10.2157 18.136 10.1517 17.976 10.0157 17.84C9.87967 17.704 9.71967 17.64 9.53567 17.64C9.35167 17.64 9.19967 17.704 9.07167 17.84C8.94367 17.976 8.87967 18.136 8.87967 18.32ZM8.87967 15.44C8.87967 15.624 8.94367 15.776 9.07167 15.904C9.19967 16.032 9.35967 16.096 9.53567 16.096C9.72767 16.096 9.88767 16.032 10.0157 15.904C10.1517 15.776 10.2157 15.624 10.2157 15.432C10.2157 15.248 10.1517 15.088 10.0157 14.96C9.87967 14.832 9.71967 14.768 9.53567 14.768C9.35167 14.768 9.19967 14.832 9.07167 14.96C8.94367 15.088 8.87967 15.256 8.87967 15.44ZM8.87967 21.248C8.87967 21.424 8.94367 21.576 9.07167 21.704C9.20767 21.84 9.35967 21.904 9.53567 21.904C9.72767 21.904 9.88767 21.84 10.0157 21.72C10.1517 21.592 10.2157 21.44 10.2157 21.248C10.2157 21.056 10.1517 20.896 10.0157 20.768C9.87967 20.632 9.71967 20.568 9.53567 20.568C9.35967 20.568 9.20767 20.632 9.07167 20.768C8.94367 20.904 8.87967 21.064 8.87967 21.248ZM11.4557 16.784C11.4557 16.976 11.5197 17.136 11.6477 17.272C11.7757 17.408 11.9357 17.472 12.1197 17.472C12.3037 17.472 12.4637 17.408 12.5917 17.272C12.7197 17.136 12.7837 16.976 12.7837 16.784C12.7837 16.6 12.7197 16.448 12.5917 16.32C12.4637 16.192 12.3117 16.128 12.1197 16.128C11.9277 16.128 11.7757 16.192 11.6477 16.32C11.5197 16.448 11.4557 16.608 11.4557 16.784ZM11.4557 19.688C11.4557 19.856 11.5197 20.008 11.6397 20.144C11.7837 20.272 11.9437 20.336 12.1197 20.336C12.3117 20.336 12.4637 20.272 12.5917 20.152C12.7197 20.024 12.7757 19.872 12.7757 19.688C12.7757 19.496 12.7117 19.344 12.5837 19.216C12.4557 19.088 12.3037 19.032 12.1117 19.032C11.9197 19.032 11.7597 19.096 11.6317 19.224C11.5197 19.344 11.4557 19.504 11.4557 19.688ZM12.2397 7.24795C12.7917 6.71995 13.4477 6.45595 14.2157 6.45595C14.9917 6.45595 15.6557 6.73595 16.1997 7.28795C16.7517 7.83995 17.0237 8.51195 17.0237 9.27995C17.0237 9.77595 16.8877 10.272 16.6157 10.752C15.8557 9.98395 14.9277 9.59995 13.8397 9.59995H13.5837C13.3437 8.66395 12.8957 7.87995 12.2397 7.24795ZM13.5197 3.07195C13.5197 3.25595 13.5837 3.41595 13.7197 3.53595C13.8557 3.65595 14.0157 3.71995 14.2077 3.71995C14.3997 3.71995 14.5517 3.65595 14.6797 3.53595C14.8077 3.40795 14.8637 3.25595 14.8637 3.07195V1.43995C14.8637 1.24795 14.7997 1.08795 14.6717 0.951953C14.5437 0.815953 14.3997 0.751953 14.2157 0.751953C14.0317 0.751953 13.8717 0.823953 13.7357 0.959953C13.5997 1.09595 13.5277 1.25595 13.5277 1.43995V3.07195H13.5197ZM17.9357 4.88795C17.9357 5.07195 17.9997 5.23195 18.1357 5.35995C18.2557 5.48795 18.4077 5.55195 18.5837 5.56795C18.7597 5.58395 18.9277 5.51195 19.0797 5.35995L20.2237 4.21595C20.3677 4.07195 20.4317 3.91195 20.4317 3.72795C20.4317 3.53595 20.3597 3.37595 20.2237 3.23995C20.0877 3.10395 19.9277 3.03995 19.7437 3.03995C19.5677 3.03995 19.4157 3.10395 19.2797 3.23995L18.1357 4.40795C17.9997 4.53595 17.9357 4.69595 17.9357 4.88795ZM18.5757 14.328C18.5757 14.528 18.6397 14.696 18.7677 14.824L19.2797 15.328C19.4717 15.456 19.6477 15.52 19.7917 15.52C19.9597 15.52 20.1037 15.448 20.2397 15.312C20.3757 15.176 20.4397 15.008 20.4397 14.824C20.4397 14.64 20.3677 14.488 20.2317 14.36L19.7357 13.84C19.5917 13.712 19.4317 13.648 19.2477 13.648C19.0637 13.648 18.9037 13.712 18.7757 13.848C18.6397 13.976 18.5757 14.136 18.5757 14.328ZM19.7357 9.27995C19.7357 9.47195 19.8077 9.62395 19.9437 9.75195C20.0797 9.89595 20.2477 9.96795 20.4397 9.96795H22.0557C22.2397 9.96795 22.3997 9.90395 22.5357 9.76795C22.6717 9.63195 22.7357 9.47195 22.7357 9.27995C22.7357 9.08795 22.6717 8.92795 22.5357 8.79995C22.3997 8.67195 22.2397 8.59995 22.0557 8.59995H20.4397C20.2477 8.59995 20.0877 8.66395 19.9437 8.79995C19.7997 8.93595 19.7357 9.09595 19.7357 9.27995Z" fill="black"/>
</svg>
