<svg width="24" height="24" viewBox="0 0 24 24" fill="none" xmlns="http://www.w3.org/2000/svg">
<path d="M3.43164 13.5439C3.43164 14.0719 3.52764 14.5679 3.73564 15.0479C3.94364 15.5279 4.20764 15.9359 4.55164 16.2879C4.89564 16.6399 5.30364 16.9199 5.76764 17.1279C6.23164 17.3359 6.73564 17.4639 7.26364 17.4879C7.35964 17.4879 7.40764 17.4399 7.40764 17.3519V16.2799C7.40764 16.1919 7.35964 16.1439 7.26364 16.1439C6.56764 16.0959 5.98364 15.8159 5.51164 15.3199C5.03964 14.8239 4.79964 14.2239 4.79964 13.5439C4.79964 12.8719 5.02364 12.2879 5.47964 11.7999C5.93564 11.3039 6.48764 11.0239 7.15964 10.9679L7.57564 10.9199C7.67164 10.9199 7.72764 10.8719 7.72764 10.7759L7.79164 10.3599C7.84764 9.79189 8.03164 9.27189 8.34364 8.80789C8.65564 8.34389 9.06364 7.97589 9.55964 7.71989C10.0556 7.46389 10.5916 7.32789 11.1756 7.32789C12.0476 7.32789 12.8076 7.61589 13.4556 8.19189C14.1036 8.76789 14.4716 9.48789 14.5676 10.3439L14.6236 10.8079C14.6236 10.8959 14.6716 10.9439 14.7756 10.9439H16.0556C16.7756 10.9439 17.3916 11.1999 17.9116 11.7119C18.4236 12.2239 18.6876 12.8319 18.6876 13.5439C18.6876 14.2319 18.4476 14.8239 17.9756 15.3199C17.5036 15.8159 16.9116 16.0959 16.2236 16.1439C16.1196 16.1439 16.0636 16.1919 16.0636 16.2799V17.3519C16.0636 17.4399 16.1196 17.4879 16.2236 17.4879C17.2956 17.4399 18.1996 17.0319 18.9276 16.2799C19.6316 15.5199 19.9996 14.6079 19.9996 13.5439C19.9996 13.0319 19.8716 12.4879 19.6236 11.8959C20.2556 11.1039 20.5756 10.2319 20.5756 9.27989C20.5756 8.51989 20.3836 7.81589 20.0076 7.17589C19.6316 6.52789 19.1196 6.02389 18.4796 5.64789C17.8396 5.27189 17.1356 5.08789 16.3836 5.08789C15.1116 5.08789 14.0796 5.55189 13.2876 6.47189C12.6396 6.12789 11.9276 5.95989 11.1596 5.95989C10.0316 5.95989 9.03164 6.31189 8.15964 7.01589C7.28764 7.71989 6.72764 8.61589 6.47964 9.71189C5.58364 9.91989 4.85564 10.3759 4.28764 11.0879C3.71164 11.7999 3.43164 12.6159 3.43164 13.5439ZM9.55164 17.2399C9.53564 17.3519 9.56764 17.4079 9.66364 17.4079H11.3996L10.3436 20.7439H10.5756L13.9196 16.2799C13.9516 16.2479 13.9596 16.2079 13.9356 16.1679C13.9116 16.1279 13.8796 16.1119 13.8236 16.1119H12.0796L13.9196 12.7199C13.9756 12.6079 13.9436 12.5439 13.8076 12.5439H11.4556C11.3916 12.5439 11.3436 12.5839 11.2876 12.6559L9.55164 17.2399ZM14.3996 7.23989C14.9356 6.71189 15.5916 6.44789 16.3756 6.44789C17.1596 6.44789 17.8236 6.71989 18.3756 7.27189C18.9276 7.81589 19.1996 8.48789 19.1996 9.27989C19.1996 9.75189 19.0636 10.2319 18.7836 10.7199C18.0076 9.97589 17.0876 9.59989 16.0236 9.59989H15.7756C15.5516 8.64789 15.0876 7.86389 14.3996 7.23989Z" fill="black"/>
</svg>
